<?xml version="1.0" encoding="UTF-8" standalone="no"?> <svg fill="#FFFFFF" id="Layer_1" data-name="Layer 1" xmlns="http://www.w3.org/2000/svg" viewBox="0 0 48 48"><title>Website</title><path d="M25,45.918c4.011-.61,7.466-4.848,9.386-10.918H25Z"/><path d="M36.49,35a22.712,22.712,0,0,1-5.45,9.838A22.1,22.1,0,0,0,43.04,35Z"/><path d="M45.975,25H37.986a39.929,39.929,0,0,1-.973,8h7.054A21.836,21.836,0,0,0,45.975,25Z"/><path d="M25,33h9.946a37.538,37.538,0,0,0,1.04-8H25Z"/><path d="M25,2.082V13h9.386C32.466,6.93,29.011,2.692,25,2.082Z"/><path d="M44.067,15H37.013a39.929,39.929,0,0,1,.973,8h7.989A21.836,21.836,0,0,0,44.067,15Z"/><path d="M43.04,13a22.1,22.1,0,0,0-12-9.838A22.712,22.712,0,0,1,36.49,13Z"/><path d="M25,23H35.986a37.538,37.538,0,0,0-1.04-8H25Z"/><path d="M23,45.918V35H13.614C15.534,41.07,18.989,45.308,23,45.918Z"/><path d="M23,25H12.014a37.538,37.538,0,0,0,1.04,8H23Z"/><path d="M23,15H13.054a37.538,37.538,0,0,0-1.04,8H23Z"/><path d="M23,2.082C18.989,2.692,15.534,6.93,13.614,13H23Z"/><path d="M2.025,23h7.989a39.929,39.929,0,0,1,.973-8H3.933A21.836,21.836,0,0,0,2.025,23Z"/><path d="M16.96,44.838A22.712,22.712,0,0,1,11.51,35H4.96A22.1,22.1,0,0,0,16.96,44.838Z"/><path d="M16.96,3.162A22.1,22.1,0,0,0,4.96,13h6.55A22.712,22.712,0,0,1,16.96,3.162Z"/><path d="M3.933,33h7.054a39.929,39.929,0,0,1-.973-8H2.025A21.836,21.836,0,0,0,3.933,33Z"/></svg>